<!-- Simple SVG icon for the app -->
<svg width="64" height="64" viewBox="0 0 64 64" fill="none" xmlns="http://www.w3.org/2000/svg">
  <circle cx="32" cy="32" r="30" fill="#007bff"/>
  <path d="M20 32C20 25.3726 25.3726 20 32 20C38.6274 20 44 25.3726 44 32C44 38.6274 38.6274 44 32 44C25.3726 44 20 38.6274 20 32Z" fill="white"/>
  <path d="M26 28C26 26.8954 26.8954 26 28 26H36C37.1046 26 38 26.8954 38 28V36C38 37.1046 37.1046 38 36 38H28C26.8954 38 26 37.1046 26 36V28Z" fill="#007bff"/>
  <path d="M30 30C30 29.4477 30.4477 29 31 29H33C33.5523 29 34 29.4477 34 30V34C34 34.5523 33.5523 35 33 35H31C30.4477 35 30 34.5523 30 34V30Z" fill="white"/>
</svg>